<svg version="1.1" id="Layer_1" xmlns="http://www.w3.org/2000/svg" xmlns:xlink="http://www.w3.org/1999/xlink" x="0px" y="0px"
	 width="100%" viewBox="0 0 1080 1080" enable-background="new 0 0 1080 1080" xml:space="preserve">
<path fill="#000000" opacity="0.000000" stroke="none" 
	d="
M472.000000,1081.000000 
	C314.684753,1081.000000 157.869522,1081.000000 1.027147,1081.000000 
	C1.027147,721.059631 1.027147,361.119293 1.027147,1.089460 
	C360.898773,1.089460 720.797607,1.089460 1080.848145,1.089460 
	C1080.848145,360.999939 1080.848145,720.999939 1080.848145,1081.000000 
	C878.118835,1081.000000 675.309387,1081.000000 472.000000,1081.000000 
M985.976257,500.090240 
	C985.984131,467.262238 985.993164,434.434265 985.999268,401.606262 
	C986.000793,393.580780 984.456787,392.001129 976.605957,392.000854 
	C927.280518,391.999146 877.955139,392.000000 828.629700,392.000000 
	C826.859680,392.000000 825.089661,392.000000 823.000000,392.000000 
	C823.000000,389.441925 823.000000,387.471100 823.000000,385.500275 
	C823.000000,328.009521 823.000000,270.518738 822.999634,213.027969 
	C822.999634,211.694855 823.375977,210.188461 822.872925,209.083221 
	C822.467712,208.192856 820.997375,207.787277 819.072021,207.023727 
	C781.815613,207.023727 744.559204,207.023727 706.813232,207.023727 
	C706.813232,268.996216 706.813232,330.380249 706.813232,392.257263 
	C662.268250,392.257263 618.214294,392.257263 574.238647,392.257263 
	C574.238647,429.022614 574.238647,465.290955 574.238647,502.054352 
	C618.527893,502.054352 662.581848,502.054352 707.000183,502.054352 
	C707.000183,504.511963 707.000122,506.477631 707.000122,508.443268 
	C707.000122,593.092712 706.941040,677.742249 707.087952,762.391418 
	C707.103333,771.244507 707.870117,780.161133 709.101929,788.933960 
	C711.696472,807.411926 721.911743,821.677490 736.396912,832.533142 
	C748.909058,841.910278 764.009216,844.876221 779.393799,844.923035 
	C840.714111,845.109436 902.035217,845.000244 963.356079,844.999207 
	C969.971436,844.999084 969.994263,844.995178 969.995911,838.371948 
	C970.004333,805.545288 969.999817,772.718628 969.999817,739.891968 
	C969.999817,738.312317 969.999756,736.732666 969.999756,735.000000 
	C967.415100,735.000000 965.588745,735.000000 963.762390,735.000000 
	C926.603271,735.000000 889.443604,735.104736 852.285767,734.885132 
	C846.822327,734.852905 841.167725,733.916504 835.956238,732.273621 
	C828.109558,729.800110 823.153198,722.182739 823.113586,710.544922 
	C822.882080,642.559570 822.998169,574.572937 823.010864,506.586792 
	C823.011108,505.148682 823.177307,503.710602 823.282837,502.000000 
	C825.426147,502.000000 827.234192,502.000000 829.042175,502.000000 
	C860.035828,502.000000 891.029541,502.020050 922.023193,501.992859 
	C942.348694,501.975037 962.674133,501.888916 983.665466,501.972778 
	C984.114136,501.926300 984.562866,501.879822 985.524292,501.897430 
	C985.627319,501.605133 985.730286,501.312805 985.976257,500.090240 
M290.435730,856.999939 
	C298.067993,856.100403 305.750854,855.502808 313.321533,854.235291 
	C327.002289,851.944763 339.932007,847.389160 352.475006,841.347656 
	C365.747314,834.954895 377.301147,826.399292 385.859589,814.636780 
	C393.387665,804.290405 399.336273,792.798706 406.089050,781.878723 
	C406.820404,780.696045 408.206207,779.219727 409.380310,779.133606 
	C413.805969,778.809387 418.269623,779.003479 422.497375,779.003479 
	C423.058716,782.471741 423.712982,785.348572 423.965637,788.260193 
	C425.926270,810.855469 438.606567,826.154541 457.591522,836.757629 
	C468.946075,843.099243 481.786987,844.643250 494.512909,844.872437 
	C518.835510,845.310303 543.171692,845.004395 567.502197,844.987976 
	C568.933105,844.987061 570.363892,844.816650 571.616211,844.736572 
	C571.616211,807.925110 571.616211,771.535889 571.616211,735.464905 
	C564.131287,734.958191 557.023071,734.725037 549.979248,733.924805 
	C543.904297,733.234619 538.547058,731.158020 534.865784,725.494263 
	C530.274902,718.430847 530.182922,710.429749 530.164429,702.796936 
	C529.918274,601.309265 530.000000,499.820770 530.000000,398.332458 
	C530.000000,396.376617 530.000000,394.420746 530.000000,392.265869 
	C491.497406,392.265869 453.442719,392.265869 414.885071,392.265869 
	C414.885071,410.587433 414.885071,428.650360 414.885071,447.000183 
	C410.743317,447.000183 407.083221,446.772644 403.465790,447.067810 
	C400.214966,447.333069 398.417725,446.273224 396.970673,443.258057 
	C389.283112,427.239807 377.729980,414.217957 363.809753,403.521362 
	C347.722290,391.159424 328.858032,384.686157 308.972198,382.228271 
	C294.423401,380.429993 279.589752,379.751312 264.944397,380.278442 
	C252.294540,380.733765 239.498535,382.629028 227.181305,385.603027 
	C206.007538,390.715515 186.648560,400.287903 168.888443,413.003418 
	C156.221420,422.072510 145.362595,433.071289 135.006439,444.589935 
	C131.411148,448.588806 128.071716,452.862457 124.994606,457.275024 
	C107.707191,482.065521 95.020538,509.111053 88.434685,538.561829 
	C84.422760,556.502502 81.156212,574.894165 80.360291,593.205200 
	C79.063461,623.040161 79.267433,652.959473 84.831688,682.623718 
	C88.722313,703.365540 94.770531,723.259644 103.736115,742.293274 
	C111.471275,758.714783 120.174965,774.636536 132.633423,787.995178 
	C142.822189,798.920105 152.925293,810.177612 164.514328,819.484741 
	C181.969833,833.503235 201.921707,843.449646 223.717346,849.347656 
	C239.693649,853.670898 255.785324,857.127258 272.453552,857.006531 
	C278.119263,856.965454 283.785522,857.000000 290.435730,856.999939 
z"/>
<path fill="#0088FF" opacity="1.000000" stroke="none" 
	d="
M289.943634,857.000000 
	C283.785522,857.000000 278.119263,856.965454 272.453552,857.006531 
	C255.785324,857.127258 239.693649,853.670898 223.717346,849.347656 
	C201.921707,843.449646 181.969833,833.503235 164.514328,819.484741 
	C152.925293,810.177612 142.822189,798.920105 132.633423,787.995178 
	C120.174965,774.636536 111.471275,758.714783 103.736115,742.293274 
	C94.770531,723.259644 88.722313,703.365540 84.831688,682.623718 
	C79.267433,652.959473 79.063461,623.040161 80.360291,593.205200 
	C81.156212,574.894165 84.422760,556.502502 88.434685,538.561829 
	C95.020538,509.111053 107.707191,482.065521 124.994606,457.275024 
	C128.071716,452.862457 131.411148,448.588806 135.006439,444.589935 
	C145.362595,433.071289 156.221420,422.072510 168.888443,413.003418 
	C186.648560,400.287903 206.007538,390.715515 227.181305,385.603027 
	C239.498535,382.629028 252.294540,380.733765 264.944397,380.278442 
	C279.589752,379.751312 294.423401,380.429993 308.972198,382.228271 
	C328.858032,384.686157 347.722290,391.159424 363.809753,403.521362 
	C377.729980,414.217957 389.283112,427.239807 396.970673,443.258057 
	C398.417725,446.273224 400.214966,447.333069 403.465790,447.067810 
	C407.083221,446.772644 410.743317,447.000183 414.885071,447.000183 
	C414.885071,428.650360 414.885071,410.587433 414.885071,392.265869 
	C453.442719,392.265869 491.497406,392.265869 530.000000,392.265869 
	C530.000000,394.420746 530.000000,396.376617 530.000000,398.332458 
	C530.000000,499.820770 529.918274,601.309265 530.164429,702.796936 
	C530.182922,710.429749 530.274902,718.430847 534.865784,725.494263 
	C538.547058,731.158020 543.904297,733.234619 549.979248,733.924805 
	C557.023071,734.725037 564.131287,734.958191 571.616211,735.464905 
	C571.616211,771.535889 571.616211,807.925110 571.616211,844.736572 
	C570.363892,844.816650 568.933105,844.987061 567.502197,844.987976 
	C543.171692,845.004395 518.835510,845.310303 494.512909,844.872437 
	C481.786987,844.643250 468.946075,843.099243 457.591522,836.757629 
	C438.606567,826.154541 425.926270,810.855469 423.965637,788.260193 
	C423.712982,785.348572 423.058716,782.471741 422.497375,779.003479 
	C418.269623,779.003479 413.805969,778.809387 409.380310,779.133606 
	C408.206207,779.219727 406.820404,780.696045 406.089050,781.878723 
	C399.336273,792.798706 393.387665,804.290405 385.859589,814.636780 
	C377.301147,826.399292 365.747314,834.954895 352.475006,841.347656 
	C339.932007,847.389160 327.002289,851.944763 313.321533,854.235291 
	C305.750854,855.502808 298.067993,856.100403 289.943634,857.000000 
M225.986588,715.479431 
	C228.000320,717.159607 230.149261,718.703125 232.006729,720.541199 
	C249.094772,737.450500 270.558075,744.533691 293.671295,746.788086 
	C307.082916,748.096191 320.658417,747.201477 333.976227,744.045227 
	C357.651306,738.434448 377.195740,726.079346 391.470703,706.655640 
	C405.113403,688.092346 411.809570,666.350952 413.781097,643.552551 
	C414.956390,629.962036 414.025024,616.187317 413.998413,602.495483 
	C413.965302,585.471497 410.291077,569.169983 403.976562,553.437622 
	C397.477753,537.246094 387.115784,523.657837 373.879333,512.613342 
	C357.587341,499.019318 338.176331,491.801300 317.177887,490.178436 
	C293.305847,488.333496 270.128571,491.593475 248.961975,503.999237 
	C232.716492,513.520752 220.529617,526.838318 211.322433,543.175049 
	C197.552933,567.606812 196.011017,594.511963 195.072052,621.546326 
	C194.918793,625.958618 195.395157,630.443176 196.052475,634.823486 
	C197.839066,646.729065 199.187454,658.762146 201.983398,670.439697 
	C205.983215,687.145325 214.725922,701.660889 225.986588,715.479431 
z"/>
<path fill="#0088FF" opacity="1.000000" stroke="none" 
	d="
M982.999634,501.833374 
	C962.674133,501.888916 942.348694,501.975037 922.023193,501.992859 
	C891.029541,502.020050 860.035828,502.000000 829.042175,502.000000 
	C827.234192,502.000000 825.426147,502.000000 823.282837,502.000000 
	C823.177307,503.710602 823.011108,505.148682 823.010864,506.586792 
	C822.998169,574.572937 822.882080,642.559570 823.113586,710.544922 
	C823.153198,722.182739 828.109558,729.800110 835.956238,732.273621 
	C841.167725,733.916504 846.822327,734.852905 852.285767,734.885132 
	C889.443604,735.104736 926.603271,735.000000 963.762390,735.000000 
	C965.588745,735.000000 967.415100,735.000000 969.999756,735.000000 
	C969.999756,736.732666 969.999817,738.312317 969.999817,739.891968 
	C969.999817,772.718628 970.004333,805.545288 969.995911,838.371948 
	C969.994263,844.995178 969.971436,844.999084 963.356079,844.999207 
	C902.035217,845.000244 840.714111,845.109436 779.393799,844.923035 
	C764.009216,844.876221 748.909058,841.910278 736.396912,832.533142 
	C721.911743,821.677490 711.696472,807.411926 709.101929,788.933960 
	C707.870117,780.161133 707.103333,771.244507 707.087952,762.391418 
	C706.941040,677.742249 707.000122,593.092712 707.000122,508.443268 
	C707.000122,506.477631 707.000183,504.511963 707.000183,502.054352 
	C662.581848,502.054352 618.527893,502.054352 574.238647,502.054352 
	C574.238647,465.290955 574.238647,429.022614 574.238647,392.257263 
	C618.214294,392.257263 662.268250,392.257263 706.813232,392.257263 
	C706.813232,330.380249 706.813232,268.996216 706.813232,207.023727 
	C744.559204,207.023727 781.815613,207.023727 819.536011,207.553253 
	C820.000061,266.373810 819.997620,324.664856 820.002319,382.955902 
	C820.003174,393.623077 821.385193,394.996674 832.106384,394.997772 
	C880.071594,395.002716 928.036804,394.997101 976.002014,395.003479 
	C982.972900,395.004395 982.994446,395.024811 982.996094,401.905884 
	C983.004150,435.215057 982.999695,468.524200 982.999634,501.833374 
z"/>
<path fill="#0088FF" opacity="1.000000" stroke="none" 
	d="
M983.332520,501.903076 
	C982.999695,468.524200 983.004150,435.215057 982.996094,401.905884 
	C982.994446,395.024811 982.972900,395.004395 976.002014,395.003479 
	C928.036804,394.997101 880.071594,395.002716 832.106384,394.997772 
	C821.385193,394.996674 820.003174,393.623077 820.002319,382.955902 
	C819.997620,324.664856 820.000061,266.373810 819.999756,207.624680 
	C820.997375,207.787277 822.467712,208.192856 822.872925,209.083221 
	C823.375977,210.188461 822.999634,211.694855 822.999634,213.027969 
	C823.000000,270.518738 823.000000,328.009521 823.000000,385.500275 
	C823.000000,387.471100 823.000000,389.441925 823.000000,392.000000 
	C825.089661,392.000000 826.859680,392.000000 828.629700,392.000000 
	C877.955139,392.000000 927.280518,391.999146 976.605957,392.000854 
	C984.456787,392.001129 986.000793,393.580780 985.999268,401.606262 
	C985.993164,434.434265 985.984131,467.262238 985.755066,500.677612 
	C985.341675,501.437836 985.167603,501.627289 985.011536,501.833313 
	C984.562866,501.879822 984.114136,501.926300 983.332520,501.903076 
z"/>
<path fill="#0088FF" opacity="1.000000" stroke="none" 
	d="
M985.267944,501.865387 
	C985.167603,501.627289 985.341675,501.437836 985.683594,501.142731 
	C985.730286,501.312805 985.627319,501.605133 985.267944,501.865387 
z"/>
<path fill="#000000" opacity="1.000000" stroke="none" 
	d="
M225.725586,715.227051 
	C214.725922,701.660889 205.983215,687.145325 201.983398,670.439697 
	C199.187454,658.762146 197.839066,646.729065 196.052475,634.823486 
	C195.395157,630.443176 194.918793,625.958618 195.072052,621.546326 
	C196.011017,594.511963 197.552933,567.606812 211.322433,543.175049 
	C220.529617,526.838318 232.716492,513.520752 248.961975,503.999237 
	C270.128571,491.593475 293.305847,488.333496 317.177887,490.178436 
	C338.176331,491.801300 357.587341,499.019318 373.879333,512.613342 
	C387.115784,523.657837 397.477753,537.246094 403.976562,553.437622 
	C410.291077,569.169983 413.965302,585.471497 413.998413,602.495483 
	C414.025024,616.187317 414.956390,629.962036 413.781097,643.552551 
	C411.809570,666.350952 405.113403,688.092346 391.470703,706.655640 
	C377.195740,726.079346 357.651306,738.434448 333.976227,744.045227 
	C320.658417,747.201477 307.082916,748.096191 293.671295,746.788086 
	C270.558075,744.533691 249.094772,737.450500 232.006729,720.541199 
	C230.149261,718.703125 228.000320,717.159607 225.725586,715.227051 
z"/>
</svg>